<svg xmlns="http://www.w3.org/2000/svg" x="0px" y="0px"
width="24" height="24"
viewBox="0 0 172 172"
style=" fill:#000000;"><g fill="none" fill-rule="nonzero" stroke="none" stroke-width="1" stroke-linecap="butt" stroke-linejoin="miter" stroke-miterlimit="10" stroke-dasharray="" stroke-dashoffset="0" font-family="none" font-weight="none" font-size="none" text-anchor="none" style="mix-blend-mode: normal"><path d="M0,172v-172h172v172z" fill="none"></path><g fill="#c6c6c6"><path d="M86,6.88c-43.65603,0 -79.12,35.46397 -79.12,79.12c0,43.65603 35.46397,79.12 79.12,79.12c43.65603,0 79.12,-35.46397 79.12,-79.12c0,-43.65603 -35.46397,-79.12 -79.12,-79.12zM86,13.76c39.93779,0 72.24,32.30221 72.24,72.24c0,39.93779 -32.30221,72.24 -72.24,72.24c-39.93779,0 -72.24,-32.30221 -72.24,-72.24c0,-39.93779 32.30221,-72.24 72.24,-72.24z"></path></g></g></svg>