<svg xmlns="http://www.w3.org/2000/svg" x="0px" y="0px"
width="24" height="24"
viewBox="0 0 172 172"
style=" fill:#000000;"><g fill="none" fill-rule="nonzero" stroke="none" stroke-width="1" stroke-linecap="butt" stroke-linejoin="miter" stroke-miterlimit="10" stroke-dasharray="" stroke-dashoffset="0" font-family="none" font-weight="none" font-size="none" text-anchor="none" style="mix-blend-mode: normal"><path d="M0,172v-172h172v172z" fill="none"></path><g fill="#000000"><path d="M120.33281,13.73313c-0.90031,0.01344 -1.74688,0.38969 -2.365,1.03469l-68.8,68.8c-1.34375,1.34375 -1.34375,3.52062 0,4.86437l68.8,68.8c0.86,0.90031 2.15,1.26313 3.34594,0.94063c1.20938,-0.30906 2.15,-1.24969 2.45906,-2.45906c0.3225,-1.19594 -0.04031,-2.48594 -0.94063,-3.34594l-66.36781,-66.36781l66.36781,-66.36781c1.02125,-0.99437 1.31688,-2.49937 0.76594,-3.80281c-0.55094,-1.31688 -1.84094,-2.15 -3.26531,-2.09625z"></path></g></g></svg>